<svg width="14" height="16" viewBox="0 0 14 16" fill="none" xmlns="http://www.w3.org/2000/svg">
<path d="M11.2285 3.5283H10.208C10.0986 2.71728 9.70228 1.9723 9.09082 1.42839C8.47936 0.884485 7.69327 0.577647 6.87503 0.563499C6.05679 0.577647 5.2707 0.884485 4.65924 1.42839C4.04778 1.9723 3.65143 2.71728 3.54203 3.5283H2.52203C1.96082 3.52867 1.42269 3.75172 1.02578 4.14848C0.628865 4.54524 0.405612 5.08329 0.405029 5.6445V13.36C0.405532 13.9211 0.628634 14.4592 1.02538 14.856C1.42212 15.2528 1.96009 15.4761 2.52123 15.4767H11.2282C11.7895 15.4762 12.3276 15.2531 12.7245 14.8562C13.1213 14.4594 13.3445 13.9212 13.345 13.36V5.6445C13.3444 5.08338 13.1213 4.5454 12.7245 4.14866C12.3277 3.75191 11.7897 3.5288 11.2285 3.5283ZM6.87503 1.6631C7.40244 1.67456 7.91015 1.86567 8.31421 2.20482C8.71828 2.54397 8.99451 3.01086 9.09723 3.5283H4.65283C4.75555 3.01086 5.03178 2.54397 5.43585 2.20482C5.83991 1.86567 6.34762 1.67456 6.87503 1.6631ZM12.245 13.36C12.2447 13.6296 12.1376 13.888 11.947 14.0787C11.7564 14.2694 11.498 14.3767 11.2284 14.3771H2.52153C2.25197 14.3766 1.99359 14.2693 1.80304 14.0787C1.61249 13.888 1.50532 13.6296 1.50503 13.36V5.6445C1.50535 5.37498 1.61255 5.11659 1.80314 4.92601C1.99372 4.73542 2.25211 4.62822 2.52163 4.6279H11.2286C11.4981 4.62827 11.7565 4.7355 11.947 4.92608C12.1375 5.11665 12.2447 5.37501 12.245 5.6445V13.36Z" fill="black" fill-opacity="0.8"/>
</svg>
